<svg width="36" height="36" viewBox="0 0 36 36" fill="none" xmlns="http://www.w3.org/2000/svg">
<path fill-rule="evenodd" clip-rule="evenodd" d="M18 16.875C18.2984 16.875 18.5845 16.9935 18.7955 17.2045C19.0065 17.4155 19.125 17.7016 19.125 18V21.375H22.5C22.7984 21.375 23.0845 21.4935 23.2955 21.7045C23.5065 21.9155 23.625 22.2016 23.625 22.5C23.625 22.7984 23.5065 23.0845 23.2955 23.2955C23.0845 23.5065 22.7984 23.625 22.5 23.625H19.125V27C19.125 27.2984 19.0065 27.5845 18.7955 27.7955C18.5845 28.0065 18.2984 28.125 18 28.125C17.7016 28.125 17.4155 28.0065 17.2045 27.7955C16.9935 27.5845 16.875 27.2984 16.875 27V23.625H13.5C13.2016 23.625 12.9155 23.5065 12.7045 23.2955C12.4935 23.0845 12.375 22.7984 12.375 22.5C12.375 22.2016 12.4935 21.9155 12.7045 21.7045C12.9155 21.4935 13.2016 21.375 13.5 21.375H16.875V18C16.875 17.7016 16.9935 17.4155 17.2045 17.2045C17.4155 16.9935 17.7016 16.875 18 16.875V16.875Z" fill="black"/>
<path d="M18 2.25C19.4918 2.25 20.9226 2.84263 21.9775 3.89752C23.0324 4.95242 23.625 6.38316 23.625 7.875V9H12.375V7.875C12.375 6.38316 12.9676 4.95242 14.0225 3.89752C15.0774 2.84263 16.5082 2.25 18 2.25V2.25ZM25.875 9V7.875C25.875 5.78642 25.0453 3.78338 23.5685 2.30653C22.0916 0.829685 20.0886 0 18 0C15.9114 0 13.9084 0.829685 12.4315 2.30653C10.9547 3.78338 10.125 5.78642 10.125 7.875V9H2.25V31.5C2.25 32.6935 2.72411 33.8381 3.56802 34.682C4.41193 35.5259 5.55653 36 6.75 36H29.25C30.4435 36 31.5881 35.5259 32.432 34.682C33.2759 33.8381 33.75 32.6935 33.75 31.5V9H25.875ZM4.5 11.25H31.5V31.5C31.5 32.0967 31.2629 32.669 30.841 33.091C30.419 33.5129 29.8467 33.75 29.25 33.75H6.75C6.15326 33.75 5.58097 33.5129 5.15901 33.091C4.73705 32.669 4.5 32.0967 4.5 31.5V11.25Z" fill="black"/>
</svg>
